<?xml version="1.0" encoding="utf-8"?>
<!-- Generator: Adobe Illustrator 23.0.3, SVG Export Plug-In . SVG Version: 6.00 Build 0)  -->
<svg version="1.1" id="Layer_1" xmlns="http://www.w3.org/2000/svg" xmlns:xlink="http://www.w3.org/1999/xlink" x="0px" y="0px"
	 viewBox="0 0 206.6 45.4" style="enable-background:new 0 0 206.6 45.4;" xml:space="preserve">
<style type="text/css">
	.st0{fill:#AAAAAA;}
</style>
<title>Logo_tr</title>
<g>
	<path class="st0" d="M28.8,33.3L23,10.4l-5.8,22.9H9.6L0,0h8l5.9,24.1L20.2,0h5.5L32,24.1L37.8,0h8l-9.5,33.3H28.8z"/>
	<path class="st0" d="M45.5,21.3c0-3.6,1.2-6.6,3.5-9c2.4-2.4,5.3-3.6,9-3.6c3.6,0,6.5,1.2,8.8,3.7c2.2,2.5,3.4,5.7,3.4,9.6v1.4h-18
		c0.2,1.6,0.9,2.9,2.1,4c1.2,1.1,2.8,1.6,4.8,1.6c2.6,0,4.8-0.8,6.4-2.4l2.8,4.1c-2.4,2.2-5.8,3.3-10,3.3c-3.7,0-6.8-1.2-9.3-3.5
		C46.7,28.1,45.5,25,45.5,21.3z M58,13.6c-1.8,0-3.2,0.5-4.2,1.6s-1.6,2.3-1.8,3.7h11.9c-0.1-1.4-0.6-2.6-1.6-3.7
		C61.3,14.2,59.9,13.6,58,13.6z"/>
	<path class="st0" d="M74.6,33.3V0H81v33.3H74.6z"/>
	<path class="st0" d="M85.8,21.3c0-3.7,1.2-6.7,3.6-9.1s5.5-3.5,9.2-3.5c4.3,0,7.5,1.5,9.6,4.4L104,17c-1.2-1.7-2.9-2.6-5.1-2.6
		c-1.9,0-3.5,0.6-4.7,1.9s-1.8,3-1.8,5.1s0.6,3.8,1.8,5.1c1.2,1.3,2.8,2,4.7,2c2.2,0,3.9-0.9,5.1-2.6l4.2,3.9
		c-2.1,2.9-5.3,4.4-9.6,4.4c-3.7,0-6.8-1.2-9.2-3.5C86.9,28,85.8,25,85.8,21.3z"/>
	<path class="st0" d="M132.8,30.3c-2.3,2.5-5.4,3.7-9.3,3.7s-7-1.2-9.3-3.7s-3.5-5.5-3.5-9s1.2-6.6,3.5-9s5.4-3.6,9.3-3.6
		s7,1.2,9.3,3.6s3.5,5.4,3.5,9S135.1,27.8,132.8,30.3z M118.9,26.3c1.1,1.4,2.6,2,4.5,2s3.4-0.7,4.5-2s1.7-3,1.7-5s-0.6-3.6-1.7-5
		c-1.1-1.3-2.6-2-4.5-2s-3.4,0.7-4.5,2c-1.1,1.4-1.6,3-1.6,5C117.3,23.3,117.8,24.9,118.9,26.3z"/>
	<path class="st0" d="M170.9,33.3V18.1c0-2.6-1.2-3.8-3.6-3.8c-1,0-2,0.3-2.9,0.9c-0.9,0.6-1.6,1.2-2.1,1.9v16.3h-6.4V18.1
		c0-2.6-1.2-3.8-3.6-3.8c-1,0-2,0.3-2.8,0.9c-0.9,0.6-1.6,1.2-2.2,2v16.3H141V9.2h6.3v3.1c0.6-0.9,1.7-1.7,3.2-2.5s3.1-1.2,4.8-1.2
		c3.5,0,5.7,1.5,6.7,4.4c0.8-1.2,1.9-2.2,3.4-3.1c1.5-0.9,3.1-1.3,4.9-1.3c2.3,0,4,0.6,5.3,1.8c1.2,1.2,1.8,3,1.8,5.5v17.4H170.9z"
		/>
	<path class="st0" d="M182,21.3c0-3.6,1.2-6.6,3.5-9s5.3-3.6,9-3.6c3.6,0,6.5,1.2,8.8,3.7c2.2,2.5,3.4,5.7,3.4,9.6v1.4h-18
		c0.2,1.6,0.9,2.9,2.2,4c1.2,1.1,2.8,1.6,4.8,1.6c2.6,0,4.8-0.8,6.5-2.4l2.8,4.1c-2.4,2.2-5.8,3.3-10,3.3c-3.7,0-6.8-1.2-9.3-3.5
		C183.2,28.1,182,25,182,21.3z M194.5,13.6c-1.8,0-3.2,0.5-4.2,1.6s-1.6,2.3-1.8,3.7h11.9c-0.1-1.4-0.6-2.6-1.6-3.7
		C197.8,14.2,196.4,13.6,194.5,13.6z"/>
</g>
<g>
	<path class="st0" d="M112,43.4v-6.7h1.3v2.5c0.4-0.5,0.9-0.7,1.5-0.7s1.1,0.2,1.5,0.7s0.6,1.1,0.6,1.8c0,0.8-0.2,1.4-0.6,1.9
		c-0.4,0.4-0.9,0.7-1.5,0.7s-1.1-0.2-1.5-0.7v0.6L112,43.4L112,43.4z M113.3,41.9c0.1,0.2,0.3,0.3,0.5,0.4c0.2,0.1,0.4,0.2,0.6,0.2
		c0.4,0,0.7-0.1,0.9-0.4c0.2-0.3,0.3-0.6,0.3-1s-0.1-0.8-0.3-1c-0.2-0.3-0.5-0.4-0.9-0.4c-0.2,0-0.4,0.1-0.6,0.2
		c-0.2,0.1-0.4,0.2-0.5,0.4V41.9z"/>
	<path class="st0" d="M120.8,43.4v-0.5c-0.3,0.4-0.9,0.6-1.5,0.6c-0.4,0-0.8-0.1-1.2-0.4s-0.5-0.7-0.5-1.2s0.2-0.9,0.5-1.2
		s0.7-0.4,1.2-0.4c0.7,0,1.2,0.2,1.5,0.6v-0.7c0-0.2-0.1-0.4-0.3-0.6c-0.2-0.1-0.5-0.2-0.8-0.2c-0.5,0-1,0.2-1.4,0.6l-0.5-0.9
		c0.6-0.5,1.3-0.8,2.1-0.8c0.6,0,1.1,0.1,1.5,0.4c0.4,0.3,0.6,0.8,0.6,1.4v3.1h-1.2V43.4z M120.8,42.2v-0.6c-0.2-0.3-0.5-0.4-1-0.4
		c-0.3,0-0.5,0.1-0.6,0.2s-0.3,0.3-0.3,0.5s0.1,0.4,0.3,0.5c0.2,0.1,0.4,0.2,0.6,0.2C120.3,42.7,120.6,42.5,120.8,42.2z"/>
	<path class="st0" d="M123.3,43.4v-4.8h1.3v0.7c0.2-0.2,0.4-0.4,0.7-0.5c0.3-0.1,0.6-0.2,0.9-0.2v1.2c-0.1,0-0.2,0-0.4,0
		c-0.2,0-0.4,0.1-0.7,0.2c-0.2,0.1-0.4,0.2-0.5,0.4v3.2h-1.3V43.4z"/>
	<path class="st0" d="M126.5,42.8l0.5-0.9c0.2,0.2,0.4,0.3,0.8,0.5c0.3,0.1,0.6,0.2,0.9,0.2c0.5,0,0.8-0.2,0.8-0.5
		c0-0.2-0.1-0.3-0.2-0.4s-0.4-0.2-0.7-0.2c-0.2,0-0.4-0.1-0.5-0.1s-0.3-0.1-0.5-0.2c-0.2-0.1-0.4-0.2-0.5-0.3s-0.2-0.2-0.3-0.4
		c-0.1-0.2-0.1-0.4-0.1-0.6c0-0.4,0.2-0.8,0.5-1.1c0.4-0.3,0.8-0.4,1.5-0.4c0.7,0,1.4,0.2,1.9,0.7l-0.5,0.9
		c-0.2-0.2-0.4-0.3-0.6-0.4c-0.3-0.1-0.5-0.2-0.8-0.2c-0.2,0-0.4,0-0.6,0.1c-0.1,0.1-0.2,0.2-0.2,0.3s0.1,0.2,0.2,0.3
		c0.1,0.1,0.4,0.1,0.7,0.2c0.2,0,0.4,0.1,0.5,0.1s0.3,0.1,0.5,0.2c0.2,0.1,0.4,0.2,0.5,0.3s0.2,0.2,0.3,0.4s0.1,0.4,0.1,0.6
		c0,0.5-0.2,0.8-0.6,1.1c-0.4,0.3-0.9,0.4-1.5,0.4c-0.4,0-0.8-0.1-1.2-0.2C127.1,43.2,126.8,43,126.5,42.8z"/>
	<path class="st0" d="M135,43.4v-0.6c-0.4,0.5-1,0.7-1.7,0.7c-0.5,0-0.9-0.1-1.2-0.4c-0.3-0.3-0.4-0.6-0.4-1.1v-3.4h1.3v2.9
		c0,0.6,0.3,0.9,0.9,0.9c0.4,0,0.8-0.2,1.1-0.5v-3.3h1.3v4.8C136.3,43.4,135,43.4,135,43.4z"/>
	<path class="st0" d="M140.6,43.4l-1.3-1.9l-0.6,0.6v1.2h-1.3v-6.7h1.3v4l1.8-2.2h1.6l-1.9,2.2l2,2.6h-1.6V43.4z"/>
	<path class="st0" d="M146.7,42.8c-0.5,0.5-1.1,0.7-1.9,0.7c-0.8,0-1.4-0.2-1.9-0.7s-0.7-1.1-0.7-1.8s0.2-1.3,0.7-1.8
		s1.1-0.7,1.9-0.7c0.8,0,1.4,0.2,1.9,0.7s0.7,1.1,0.7,1.8S147.2,42.3,146.7,42.8z M144,42c0.2,0.3,0.5,0.4,0.9,0.4s0.7-0.1,0.9-0.4
		c0.2-0.3,0.3-0.6,0.3-1s-0.1-0.7-0.3-1s-0.5-0.4-0.9-0.4s-0.7,0.1-0.9,0.4c-0.2,0.3-0.3,0.6-0.3,1C143.6,41.4,143.7,41.7,144,42z"
		/>
	<path class="st0" d="M149.6,43.4l-1.9-4.8h1.4l1.3,3.4l1.3-3.4h1.4l-1.9,4.8H149.6z"/>
	<path class="st0" d="M153.2,41.5v-1.1h2.4v1.1H153.2z"/>
	<path class="st0" d="M162.5,43.4v-3c0-0.5-0.2-0.8-0.7-0.8c-0.2,0-0.4,0.1-0.6,0.2c-0.2,0.1-0.3,0.2-0.4,0.4v3.3h-1.3v-3
		c0-0.5-0.2-0.8-0.7-0.8c-0.2,0-0.4,0.1-0.6,0.2c-0.2,0.1-0.3,0.2-0.4,0.4v3.3h-1.3v-4.8h1.3v0.6c0.1-0.2,0.3-0.3,0.6-0.5
		s0.6-0.2,1-0.2c0.7,0,1.1,0.3,1.3,0.9c0.2-0.2,0.4-0.4,0.7-0.6c0.3-0.2,0.6-0.3,1-0.3c0.5,0,0.8,0.1,1,0.4c0.2,0.2,0.4,0.6,0.4,1.1
		v3.5h-1.3V43.4z"/>
	<path class="st0" d="M165.1,43.3c-0.2-0.2-0.2-0.4-0.2-0.6s0.1-0.4,0.2-0.6c0.2-0.2,0.3-0.2,0.6-0.2c0.2,0,0.4,0.1,0.6,0.2
		c0.2,0.2,0.2,0.3,0.2,0.6s-0.1,0.4-0.2,0.6s-0.3,0.2-0.6,0.2C165.4,43.5,165.3,43.4,165.1,43.3z"/>
	<path class="st0" d="M167.4,44.6l0.6-0.9c0.4,0.4,0.9,0.6,1.5,0.6c0.4,0,0.7-0.1,0.9-0.3c0.3-0.2,0.4-0.5,0.4-0.9v-0.5
		c-0.4,0.5-0.9,0.8-1.5,0.8s-1.1-0.2-1.5-0.6c-0.4-0.4-0.6-1-0.6-1.8s0.2-1.4,0.6-1.8s0.9-0.7,1.5-0.7s1.1,0.2,1.5,0.7v-0.6h1.3v4.5
		c0,0.4-0.1,0.8-0.2,1.1c-0.2,0.3-0.4,0.5-0.6,0.7s-0.5,0.3-0.8,0.3c-0.3,0.1-0.6,0.1-0.9,0.1C168.7,45.4,168,45.1,167.4,44.6z
		 M170.8,41.7v-1.6c-0.1-0.2-0.3-0.3-0.5-0.4c-0.2-0.1-0.4-0.2-0.6-0.2c-0.4,0-0.7,0.1-0.9,0.4c-0.2,0.2-0.3,0.6-0.3,1
		s0.1,0.7,0.3,1c0.2,0.2,0.5,0.4,0.9,0.4c0.2,0,0.4-0.1,0.6-0.2C170.6,42,170.7,41.9,170.8,41.7z"/>
	<path class="st0" d="M174,37.9c-0.2,0-0.4-0.1-0.5-0.2c-0.1-0.2-0.2-0.3-0.2-0.5s0.1-0.4,0.2-0.5c0.2-0.2,0.3-0.2,0.5-0.2
		s0.4,0.1,0.5,0.2s0.2,0.3,0.2,0.5s-0.1,0.4-0.2,0.5S174.2,37.9,174,37.9z M173.4,43.4v-4.8h1.3v4.8H173.4z"/>
	<path class="st0" d="M177.5,43.5c-0.4,0-0.8-0.1-1-0.3s-0.4-0.6-0.4-1v-2.5h-0.8v-1.1h0.8v-1.3h1.3v1.3h1v1.1h-1v2.2
		c0,0.2,0,0.3,0.1,0.4c0.1,0.1,0.2,0.2,0.3,0.2c0.2,0,0.3,0,0.4-0.1l0.3,1C178.4,43.4,178,43.5,177.5,43.5z"/>
	<path class="st0" d="M182.6,43.4v-2.9c0-0.3-0.1-0.5-0.2-0.7c-0.2-0.1-0.4-0.2-0.7-0.2c-0.4,0-0.8,0.2-1.1,0.6v3.3h-1.3v-6.7h1.3
		v2.5c0.2-0.2,0.4-0.4,0.7-0.5s0.6-0.2,1-0.2c0.5,0,0.9,0.1,1.2,0.4c0.3,0.3,0.4,0.6,0.4,1.1v3.4L182.6,43.4L182.6,43.4z"/>
	<path class="st0" d="M188.4,43.4v-0.6c-0.4,0.5-1,0.7-1.7,0.7c-0.5,0-0.9-0.1-1.2-0.4c-0.3-0.3-0.4-0.6-0.4-1.1v-3.4h1.3v2.9
		c0,0.6,0.3,0.9,0.9,0.9c0.4,0,0.8-0.2,1.1-0.5v-3.3h1.3v4.8C189.7,43.4,188.4,43.4,188.4,43.4z"/>
	<path class="st0" d="M190.9,43.4v-6.7h1.3v2.5c0.4-0.5,0.9-0.7,1.5-0.7s1.1,0.2,1.5,0.7s0.6,1.1,0.6,1.8c0,0.8-0.2,1.4-0.6,1.9
		c-0.4,0.4-0.9,0.7-1.5,0.7s-1.1-0.2-1.5-0.7v0.6L190.9,43.4L190.9,43.4z M192.2,41.9c0.1,0.2,0.3,0.3,0.5,0.4s0.4,0.2,0.6,0.2
		c0.4,0,0.7-0.1,0.9-0.4c0.2-0.3,0.3-0.6,0.3-1s-0.1-0.8-0.3-1c-0.2-0.3-0.5-0.4-0.9-0.4c-0.2,0-0.4,0.1-0.6,0.2s-0.4,0.2-0.5,0.4
		V41.9z"/>
	<path class="st0" d="M196.8,43.3c-0.2-0.2-0.2-0.4-0.2-0.6s0.1-0.4,0.2-0.6c0.2-0.2,0.4-0.2,0.6-0.2s0.4,0.1,0.6,0.2
		c0.2,0.2,0.2,0.3,0.2,0.6s-0.1,0.4-0.2,0.6c-0.2,0.2-0.4,0.2-0.6,0.2S196.9,43.4,196.8,43.3z"/>
	<path class="st0" d="M199.9,37.9c-0.2,0-0.4-0.1-0.5-0.2c-0.2-0.2-0.2-0.3-0.2-0.5s0.1-0.4,0.2-0.5c0.1-0.2,0.3-0.2,0.5-0.2
		s0.4,0.1,0.5,0.2c0.1,0.1,0.2,0.3,0.2,0.5s-0.1,0.4-0.2,0.5S200.1,37.9,199.9,37.9z M199.3,43.4v-4.8h1.3v4.8H199.3z"/>
	<path class="st0" d="M205.9,42.8c-0.5,0.5-1.1,0.7-1.9,0.7s-1.4-0.2-1.9-0.7s-0.7-1.1-0.7-1.8s0.2-1.3,0.7-1.8s1.1-0.7,1.9-0.7
		s1.4,0.2,1.9,0.7s0.7,1.1,0.7,1.8S206.4,42.3,205.9,42.8z M203.1,42c0.2,0.3,0.5,0.4,0.9,0.4s0.7-0.1,0.9-0.4
		c0.2-0.3,0.3-0.6,0.3-1s-0.1-0.7-0.3-1s-0.5-0.4-0.9-0.4s-0.7,0.1-0.9,0.4c-0.2,0.3-0.3,0.6-0.3,1S202.9,41.7,203.1,42z"/>
</g>
</svg>
